<?xml version="1.0" standalone="no"?>
<!DOCTYPE svg PUBLIC "-//W3C//DTD SVG 1.1//EN" "http://www.w3.org/Graphics/SVG/1.1/DTD/svg11.dtd" >
<!--
2013-7-22: Created.
-->
<svg xmlns="http://www.w3.org/2000/svg">
<metadata>
Created by FontForge 20120731 at Mon Jul 22 16:03:09 2013
 By Cody Peterson
Created by Cody Peterson with FontForge 2.0 (http://fontforge.sf.net)
</metadata>
<defs>
<font id="mmicons" horiz-adv-x="512" >
  <font-face 
    font-family="mmicons"
    font-weight="500"
    font-stretch="normal"
    units-per-em="512"
    panose-1="2 0 6 9 0 0 0 0 0 0"
    ascent="448"
    descent="-64"
    bbox="0.107086 -64.1536 511.9 448.131"
    underline-thickness="25.6"
    underline-position="-51.2"
    unicode-range="U+F100-F121"
  />
    <missing-glyph />
    <glyph glyph-name="uniF100" unicode="&#xf100;" 
d="M262.624 24.6396c-2.5918 -1.95117 -5.21582 -3.32812 -8.44824 -3.32812c-3.32812 0 -5.95215 1.37695 -8.57617 3.32812l-234.304 234.688c-1.98438 2.62402 -3.26367 5.24805 -3.26367 8.51172s1.2793 5.91992 3.2959 8.51172l83.0723 83.0723
c2.5918 1.95215 5.21582 3.26465 8.47949 3.26465c3.2959 0 5.91992 -1.3125 8.51172 -3.26465l144.576 -144.576l144.672 144.576c2.56055 1.95215 5.24805 3.26465 8.57617 3.26465c3.2002 0 5.82422 -1.3125 8.41602 -3.26465l83.1045 -83.1035
c1.9834 -2.59277 3.2959 -5.2168 3.2959 -8.5127s-1.28027 -5.91992 -3.2959 -8.54395z" />
    <glyph glyph-name="uniF101" unicode="&#xf101;" 
d="M88.6084 185.312c-1.95215 2.59277 -3.32812 5.2168 -3.32812 8.48047c0 3.32812 1.37598 5.91992 3.32812 8.51172l234.752 234.368c2.62402 1.98438 5.24805 3.26367 8.51172 3.26367c3.2959 0 5.91992 -1.2793 8.54395 -3.26367l83.1035 -83.0723
c1.95215 -2.5918 3.26465 -5.21582 3.26465 -8.47949s-1.3125 -5.8877 -3.26465 -8.51172l-144.64 -144.576l144.608 -144.641c1.95215 -2.55957 3.26367 -5.24805 3.26367 -8.5752c0 -3.2002 -1.31152 -5.82422 -3.26367 -8.41602l-83.1045 -83.1045
c-2.62402 -1.98438 -5.24805 -3.26367 -8.54395 -3.26367c-3.26367 0 -5.8877 1.2793 -8.51172 3.26367z" />
    <glyph glyph-name="uniF102" unicode="&#xf102;" 
d="M423.392 198.688c1.95215 -2.59277 3.32812 -5.2168 3.32812 -8.48047c0 -3.32812 -1.37598 -5.91992 -3.32812 -8.51172l-234.752 -234.368c-2.62402 -1.98438 -5.24805 -3.26367 -8.51172 -3.26367c-3.2959 0 -5.91992 1.2793 -8.54395 3.26367l-83.1035 83.1035
c-1.95215 2.59277 -3.26465 5.2168 -3.26465 8.48047s1.3125 5.8877 3.26465 8.51172l144.607 144.576l-144.607 144.64c-1.95215 2.56055 -3.26465 5.24805 -3.26465 8.57617c0 3.2002 1.3125 5.82422 3.26465 8.41602l83.1035 83.0723
c2.65625 1.91992 5.28027 3.2002 8.57617 3.2002c3.26367 0 5.8877 -1.28027 8.51172 -3.26465z" />
    <glyph glyph-name="uniF103" unicode="&#xf103;" 
d="M249.312 359.392c2.59277 1.95215 5.2168 3.32812 8.44824 3.32812c3.32812 0 5.95215 -1.37598 8.57617 -3.32812l234.304 -234.752c1.98438 -2.62402 3.2959 -5.24805 3.2959 -8.51172c0 -3.32812 -1.2793 -5.95215 -3.2959 -8.57617l-83.0713 -83.0713
c-2.59277 -1.95215 -5.2168 -3.26465 -8.48047 -3.26465c-3.2959 0 -5.91992 1.3125 -8.51172 3.26465l-144.544 144.64l-144.672 -144.576c-2.52832 -1.95215 -5.2168 -3.26367 -8.54395 -3.26367c-3.2002 0 -5.82422 1.31152 -8.41602 3.26367l-83.1045 83.0723
c-1.98438 2.62402 -3.26367 5.24805 -3.26367 8.57617c0 3.26367 1.2793 5.8877 3.26367 8.51172z" />
    <glyph glyph-name="uniF104" unicode="&#xf104;" 
d="M490.464 196.64c8.83203 -2.17578 14.2402 -11.1992 12.1924 -20.0635l-21.2803 -115.776c-2.1123 -8.99219 -11.0078 -14.4639 -19.8076 -12.3193l-26.624 5.75977c-5.79199 1.4082 -11.6807 3.90332 -11.6162 11.3281h-55.04v-38.8164
c0 -22.4961 -18.2402 -40.6719 -40.6719 -40.6719h-103.937c-22.4639 0 -40.6719 18.2402 -40.6719 40.6719v38.8164h-100.768c-6.62402 -15.6484 -23.3604 -23.8721 -40.2559 -20.5127c-23.8721 4.80078 -36.6729 24.416 -32.1279 43.5527l55.6152 281.407
c5.69629 27.2646 23.4248 30.8809 42.2725 26.2725c16.7676 -4.0957 35.9043 -15.2637 29.2158 -36.832l312.48 -163.937c3.74316 5.56836 10.5596 8.57617 17.4072 6.88086zM327.52 26.6562v38.8154h-103.871v-38.8154h103.871zM423.104 149.824
c1.24805 5.31152 -1.31152 10.8154 -6.27148 13.1514l-264.992 127.648c-3.13574 1.50391 -6.71973 1.50391 -9.82422 0c-3.10352 -1.50391 -5.37598 -4.38379 -6.20801 -7.74414l-17.3438 -71.9355c-1.47168 -6.08008 2.08008 -12.2559 8.06445 -13.9199l275.231 -71.7129
c0.12793 -0.0634766 0.255859 -0.0634766 0.383789 -0.12793c2.91211 -0.735352 5.98438 -0.287109 8.54492 1.24805c2.65527 1.63281 9.21582 11.5527 9.91992 14.624z" />
    <glyph glyph-name="uniF105" unicode="&#xf105;" 
d="M451.712 309.088c12.7363 0 23.0723 -10.3037 23.0723 -23.0723v-299.359c0 -12.7686 -10.3682 -23.0078 -23.0723 -23.0078h-391.456c-12.7676 0 -23.0723 10.3037 -23.0723 23.0078v299.359c0 12.7686 10.3682 23.0723 23.0723 23.0723h391.456zM152.352 9.69629
v69.0879h-69.0879v-69.0879h69.0879zM152.352 101.824v69.0879h-69.0879v-69.0879h69.0879zM152.352 193.952v69.0879h-69.0879v-69.0879h69.0879zM244.448 9.69629h-0.0322266v69.0879h-69.0557v-69.0879h69.0879zM244.448 101.824h-0.0322266v69.0879h-69.0557v-69.0879
h69.0879zM244.448 193.952h-0.0322266v69.0879h-69.0557v-69.0879h69.0879zM336.576 9.69629h-0.0322266v69.0879h-69.0557v-69.0879h69.0879zM336.576 101.824h-0.0322266v69.0879h-69.0557v-69.0879h69.0879zM336.576 193.952h-0.0322266v69.0879h-69.0557v-69.0879
h69.0879zM428.672 9.69629v69.0879h-69.0879v-69.0879h69.0879zM428.672 101.824v69.0879h-69.0879v-69.0879h69.0879zM428.672 193.952v69.0879h-69.0879v-69.0879h69.0879zM451.712 351.264c12.7363 0 23.0723 -10.3037 23.1045 -23.04v-46.0479h-437.601v46.0479
c0 12.7686 10.3682 23.04 23.0723 23.04h69.0879v69.0879h46.0156v-69.0879h161.217v69.0879h46.0156v-69.0879h69.0879z" />
    <glyph glyph-name="uniF106" unicode="&#xf106;" 
d="M408.928 373.92l102.017 -90.9443l-211.841 -188.96l-94.0479 -83.9355l-102.016 91.0078l-101.984 90.9121l94.0801 84l102.017 -90.9443z" />
    <glyph glyph-name="uniF107" unicode="&#xf107;" 
d="M510.368 34.9443c0 -3.32812 -1.3125 -6.0166 -3.32812 -8.67188l-85.248 -85.3125c-2.68848 -1.98438 -5.37598 -3.36035 -8.67188 -3.36035c-3.36035 0 -6.04785 1.37598 -8.73633 3.36035l-148.384 148.352l-148.384 -148.447
c-2.68848 -1.95215 -5.37598 -3.32812 -8.67188 -3.32812c-3.32812 0 -6.0166 1.37598 -8.7041 3.32812l-85.248 85.3115c-1.98438 2.68848 -3.32812 5.37598 -3.32812 8.73633s1.31152 6.04785 3.32812 8.67188l148.352 148.416l-148.384 148.384
c-1.98438 2.62402 -3.32812 5.3125 -3.32812 8.7041c0 3.39258 1.3125 6.04785 3.32812 8.73633l85.248 85.248c2.68848 2.01562 5.37598 3.35938 8.7041 3.35938s6.04785 -1.34375 8.7041 -3.35938l148.384 -148.384l148.384 148.352
c2.68848 2.01562 5.37598 3.36035 8.73633 3.36035c3.32812 0 6.01562 -1.34473 8.67188 -3.36035l85.248 -85.248c1.98438 -2.68848 3.32812 -5.37598 3.32812 -8.73633c0 -3.35938 -1.3125 -6.04785 -3.32812 -8.67188l-148.384 -148.384l148.384 -148.384
c2.01562 -2.62402 3.32812 -5.3125 3.32812 -8.67188z" />
    <glyph glyph-name="uniF108" unicode="&#xf108;" 
d="M511.104 245.184c0 -38.5596 -22.0479 -73.9834 -58.6875 -101.504v0s-0.12793 -0.12793 -0.192383 -0.12793c-8.51172 -6.46387 -17.8877 -12.4482 -27.9355 -17.9199c-54.3037 -34.7197 -173.185 -110.72 -229.92 -146.08
c22.9434 47.5518 37.5039 82.3047 46.6875 106.688c-133.983 4.83203 -240.159 74.1758 -240.159 158.943c0 87.9365 114.176 159.265 255.104 159.265s255.104 -71.2646 255.104 -159.265z" />
    <glyph glyph-name="uniF109" unicode="&#xf109;" 
d="M503.424 326.784l-247.359 -269.601l-247.488 269.601h494.848z" />
    <glyph glyph-name="uniF10A" unicode="&#xf10a;" 
d="M256 444.8c139.552 0 252.8 -113.216 252.8 -252.8c0 -139.552 -113.248 -252.8 -252.8 -252.8c-139.616 0 -252.8 113.248 -252.8 252.8c0 139.584 113.184 252.8 252.8 252.8zM256 -7.61621c110.24 0 199.552 89.4404 199.552 199.616s-89.3115 199.52 -199.552 199.52
s-199.584 -89.3115 -199.584 -199.52c0 -110.176 89.3438 -199.616 199.584 -199.616zM290.88 311.744v-133.056h72.2559l-107.168 -121.536l-107.2 121.536h72.2568v133.056h69.8555z" />
    <glyph glyph-name="uniF10B" unicode="&#xf10b;" 
d="M293.056 255.52h95.3281v-95.2959h-95.3281v-222.367h-95.2637v222.399h-74.1758v95.2637h74.1758v63.5527c0 70.0156 52.3203 127.071 116.448 127.071h74.1113v-95.3271h-74.1113c-11.7441 0 -21.1846 -14.0801 -21.1846 -31.7441v-63.5527v0z" />
    <glyph glyph-name="uniF10C" unicode="&#xf10c;" 
d="M504.64 140.768c6.1123 -5.24805 8.7041 -13.5352 6.46387 -21.3438c-3.93555 -14.5596 -8.86328 -28.416 -14.8477 -41.248c-3.42383 -7.61621 -10.9756 -12.3838 -19.3281 -12.3838l-58.7197 0.383789c-7.42383 -9.8877 -15.4561 -18.752 -24.1924 -26.8799
l5.63281 -59.3281c0.799805 -8.16016 -3.39258 -16 -10.5283 -20.0957c-12.0957 -6.81641 -25.376 -12.96 -39.5518 -18.3682c-7.71191 -2.91211 -16.6719 -1.05566 -22.5605 4.86426l-42.3994 42.8799c-11.8721 -1.66406 -24 -1.79199 -36.416 -1.21582l-37.376 -44.6719
c-4.35254 -5.12012 -10.752 -7.80859 -17.2803 -7.48828c-1.60059 0.0634766 -3.23242 0.255859 -4.86426 0.799805c-13.1523 3.77637 -27.04 8.89648 -41.1523 15.2637c-7.45508 3.39258 -12.2871 10.7207 -12.3838 18.8809l-0.799805 59.7119
c-10.0156 7.83984 -19.2637 16.5439 -27.6475 25.8232l-58.4648 -4.54395c-8.41602 -0.799805 -16.0312 3.48828 -20.0635 10.4961c-7.52051 13.1523 -13.8242 26.7842 -18.9766 40.4805c-2.75195 7.71191 -0.895508 16.1602 4.73633 21.9199l41.1201 41.7275
c-1.82422 12.5439 -2.55957 25.0879 -2.14355 37.5684l-45.4727 38.9121c-6.08008 5.12012 -8.63965 13.376 -6.65625 21.0879c3.87207 14.7197 8.83203 28.7676 14.752 41.7275c3.4248 7.58398 11.04 12.3525 19.3604 12.3525l58.5918 -0.448242
c7.26465 9.63184 15.4561 18.5283 24.4482 26.6885l-5.50391 59.3594c-0.767578 8.19238 3.32812 16.0322 10.5596 20.1279c12.7041 7.13672 26.0801 13.3125 39.7129 18.3047c7.74316 2.81543 16.5439 0.927734 22.3672 -4.89648l42.4004 -42.5596
c11.7441 1.37598 23.9043 1.82422 36.2236 1.21582l37.4404 44.7041c5.37598 6.36816 14.208 8.99219 22.0479 6.78418c14.0801 -3.93652 28.0957 -9.28027 41.8242 -15.7764c7.2959 -3.45605 11.9355 -10.624 12.0635 -18.6562l0.736328 -59.8076
c10.0801 -7.87207 19.2637 -16.4805 27.3916 -25.6006l58.7207 4.44824c8.19141 0.543945 16.0957 -3.61621 20.0635 -10.7197c7.36035 -12.8965 13.6318 -26.3682 18.8799 -40.2236c2.97656 -7.58398 1.12012 -16.1924 -4.67188 -22.0166l-41.2793 -41.792
c1.72754 -12.1602 2.43164 -24.6396 1.79199 -37.248zM392.064 142.496c13.1836 36.1279 11.5518 74.9443 -4.80078 109.664c-22.7197 48.6074 -70.4316 80.3516 -124.447 82.9756c-23.168 1.08789 -46.6885 -3.4873 -67.8086 -13.248
c-35.1035 -16.0957 -61.7275 -44.7354 -74.9434 -80.7041c-13.3125 -36.0312 -11.5527 -75.04 4.73535 -109.728c22.7842 -48.6719 70.4961 -80.3525 124.448 -82.9756c23.2637 -1.05664 46.7197 3.42383 67.9355 13.2158c35.04 16.1279 61.6006 44.832 74.8809 80.7998z
M260.064 277.536c32.3516 -1.50391 60.8633 -20.5117 74.4316 -49.6006c9.85547 -20.7998 10.8799 -44.1592 2.87988 -65.6631c-7.87207 -21.5684 -23.7441 -38.7529 -44.7041 -48.3848c-42.5918 -19.6152 -95.5518 -0.12793 -115.168 41.7607
c-9.79199 20.8633 -10.8477 44.1279 -2.87988 65.6631c7.93555 21.5049 23.8398 38.6885 44.8643 48.3203c12.8955 5.95215 26.5596 8.57617 40.5762 7.9043z" />
    <glyph glyph-name="uniF10D" unicode="&#xf10d;" 
d="M268.928 67.7441c0 -48.2559 -46.4639 -95.9365 -131.296 -95.9365c-73.5996 0 -136 30.0166 -136 78.2402c0 48.8643 57.0879 96 130.72 96h22.9443c-9.98438 9.98438 -17.6641 21.7598 -17.6641 36.5117c0 8.83203 2.33594 17.6328 6.46387 25.3447
c-4.12793 -0.640625 -8.22363 -0.640625 -12.3838 -0.640625c-60.6719 0 -101.216 42.9443 -101.216 96.5762c0 52.3838 55.9355 97.7285 115.968 97.7285h133.024l-29.9844 -21.792h-42.4004c28.3203 -10.624 43.04 -42.9766 43.04 -76.5439
c0 -28.2568 -15.3271 -52.3848 -37.7275 -69.4404c-21.1836 -17.0557 -25.3125 -24.1279 -25.3125 -38.3037c0 -12.3525 22.9766 -32.9287 35.3281 -41.1201c34.7207 -25.376 46.4961 -48.2559 46.4961 -86.624zM234.208 62.4316
c0 4.73633 -0.639648 8.86426 -1.15234 13.5684c-5.91992 21.8242 -25.9834 32.9277 -53.5996 52.4482c-9.98438 2.91211 -21.1836 4.67188 -32.9277 5.31152c-51.2646 0 -96.6084 -31.2637 -96.6084 -69.5039c0 -38.8154 36.5762 -71.2002 87.7119 -71.2002
c71.8398 0 96.5762 30.5605 96.5762 69.376zM202.432 300.288c-5.95117 45.3438 -38.3037 81.2803 -73.0234 82.4316c-34.1123 1.21582 -57.1201 -33.5039 -51.2646 -78.3037c5.95215 -45.3125 38.9121 -82.4316 73.0244 -83.5518
c34.1758 -1.18457 57.1523 34.6875 51.2637 79.4238zM510.336 306.24h-84.7363v-84.7998h-21.2158v84.7998h-84.7676v21.1836h84.7354v84.7363h21.248v-84.7363h84.7363v-21.1836z" />
    <glyph glyph-name="uniF10E" unicode="&#xf10e;" 
d="M385.344 72.1602c0 -48.6719 -46.8799 -96.6719 -132.256 -96.6719c-74.1758 0 -137.056 30.1758 -137.056 78.8799c0 49.248 57.5361 96.7354 131.744 96.7354h23.0713c-10.0479 10.0488 -17.7598 21.9209 -17.7598 36.7363c0 8.86426 2.30371 17.8242 6.49609 25.5039
c-4.19238 -0.639648 -8.32031 -0.639648 -12.4805 -0.639648c-61.0879 0 -102.016 43.3281 -102.016 97.3438c0 52.7686 56.3525 98.4639 116.832 98.4639h134.048l-30.208 -21.9199h-42.752c28.5117 -10.6875 43.3281 -43.2959 43.3281 -77.1201
c0 -28.5117 -15.3604 -52.7998 -37.9844 -70.0156c-21.376 -17.1836 -25.5039 -24.3203 -25.5039 -38.5918c0 -12.4482 23.168 -33.2158 35.5527 -41.5361c35.1035 -25.4404 46.9434 -48.6084 46.9434 -87.168zM350.304 66.7842
c0 4.7998 -0.576172 8.92773 -1.12012 13.6963c-5.95117 21.9512 -26.1113 33.2471 -54.0156 52.7998c-10.1123 2.97559 -21.3438 4.7041 -33.2158 5.31152c-51.584 0 -97.3125 -31.4238 -97.3125 -70.0156c0 -39.1357 36.8008 -71.7441 88.4482 -71.7441
c72.3525 0 97.2158 30.8164 97.2158 69.9521zM318.304 306.464c-5.9834 45.7285 -38.5918 81.9199 -73.5996 83.1045c-34.3359 1.15137 -57.5361 -33.792 -51.584 -78.9121c5.9834 -45.6963 39.2002 -83.0723 73.5996 -84.2559
c34.4004 -1.18457 57.5361 35.0078 51.584 80.0635z" />
    <glyph glyph-name="uniF10F" unicode="&#xf10f;" 
d="M424.928 259.104l83.4238 -66.5596h-80.7676v-202.432h-121.152v141.312h-100.928v-141.312h-121.088v202.432h-80.7676l252.447 201.344l90.752 -72.4473v72.4473h78.0801v-134.784z" />
    <glyph glyph-name="uniF110" unicode="&#xf110;" 
d="M11.2002 42.7842v405.056h42.6875v-405.056h-42.6875zM352.256 362.528v85.3115h42.6885v-85.3115h-42.6885zM117.056 341.12h383.744v-404.96h-383.744v404.96zM458.112 41.0244v257.567h-298.368v-257.567h298.368zM11.2002 405.216v42.624h383.04v-42.624h-383.04z
" />
    <glyph glyph-name="uniF111" unicode="&#xf111;" 
d="M217.856 173.056h124.512v103.776l166.016 -145.28l-166.016 -124.448v82.9443h-124.512v83.0078zM294.144 293.856v-82.9766h-124.479v-103.776l-166.016 145.28l166.016 124.48v-82.9766l124.479 -0.03125v0z" />
    <glyph glyph-name="uniF112" unicode="&#xf112;" 
d="M319.616 80.7998c7.4873 0.671875 14.3682 -5.56738 15.3281 -14.1113c0.927734 -8.67285 -4.54395 -16.3203 -12.0645 -16.8965l-138.368 -13.7275c-7.42383 -0.672852 -14.5596 5.53516 -15.7754 14.2393c-0.832031 8.6084 4.51172 16.1924 12.2881 17.0566z
M318.176 31.8721c7.74414 0.639648 14.5605 -5.56836 15.3281 -14.1445c0.927734 -8.35156 -4.44824 -16 -12 -16.6074l-137.696 -13.8877c-7.4873 -0.864258 -14.5273 5.31152 -15.7119 13.9512c-0.959961 8.67285 4.48047 15.9365 12.2246 16.8643zM268.768 -23.7764
c8.16016 0.896484 15.9365 -5.91992 16.9287 -15.168c1.18359 -9.43945 -4.99219 -17.5674 -13.248 -18.752l-38.8486 -3.87207c-8.51172 -0.799805 -16.2559 6.0166 -17.4072 15.2646c-0.992188 9.43945 4.92773 17.9521 13.376 18.752zM256.352 445.632
c82.7207 0 149.664 -65.2803 149.633 -145.792c0 -98.8154 -60 -100.64 -78.3359 -165.567c-5.34473 -18.4326 -17.3125 -22.0488 -35.6484 -22.208l-81.0244 -11.3281c-1.02344 -0.224609 -2.17578 0 -3.16797 0c-9.11914 0.191406 -16.2881 7.4873 -23.4873 33.5674
c-17.6963 65.0566 -78.3359 66.752 -78.3359 165.504c0 80.5439 67.04 145.824 149.695 145.824h0.671875zM286.976 377.44c16.4482 0 32.4482 -3.39258 47.5527 -10.0801l36.832 -16.3525l-30.5605 26.3359c-21.1836 18.2402 -48.1279 28.3203 -76.3516 28.3203
c-65.1523 0 -118.176 -54.3682 -118.176 -121.12c0 -20.9922 3.23145 -38.4316 9.82324 -53.4717l15.4883 -35.04l-4.16016 38.1113c-0.671875 6.62402 -0.992188 13.1846 -0.992188 19.9365c0 68.0322 53.8887 123.36 120.097 123.36h0.447266z" />
    <glyph glyph-name="uniF113" unicode="&#xf113;" 
d="M498.304 191.968l-126.368 -117.279v90.3037h-358.239v53.9834h358.239v90.3359z" />
    <glyph glyph-name="uniF114" unicode="&#xf114;" 
d="M92.5762 304.832c-32.0957 0 -53.1201 22.0156 -53.1201 49.6318c0 28.0645 21.5684 49.6318 54.6562 49.6318c32.5762 0 53.0879 -21.5361 53.6318 -49.6318c0 -27.5518 -21.0557 -49.6318 -54.6885 -49.6318h-0.479492zM138.688 259.712v-279.712h-90.208v279.712
h90.208zM283.072 142.432v0v-162.496h-90.208v216.576s-1.56836 53.6318 -1.56836 63.1367h88.7363l3.00781 -38.624c17.9844 27.0713 45.0557 47.6797 81.1836 47.6797c63.1367 0 108.32 -45.1201 108.32 -126.336v-162.433h-90.2402v153.44
c0 45.1201 -22.0801 63.1357 -49.1201 63.1357s-50.1113 -18.0479 -50.1113 -54.0801z" />
    <glyph glyph-name="uniF115" unicode="&#xf115;" 
d="M255.712 -55.168c-72.7676 0 -143.04 25.376 -198.464 71.5518l-37.5039 -37.1836c-1.85645 -1.85645 -4.6084 -2.36816 -6.97656 -1.37598c-2.39941 0.959961 -3.96777 3.32812 -3.96777 5.8877v154.624c0 3.48828 2.87988 6.30371 6.36816 6.30371h155.904
c2.5918 0 4.92773 -1.56738 5.9834 -3.93555c0.992188 -2.30371 0.448242 -5.05566 -1.40723 -6.87988l-45.5049 -45.1201c36.1924 -27.6162 79.3926 -42.1758 125.568 -42.1758c3.48828 0 6.40039 -2.87988 6.40039 -6.36816v-88.9277
c0 -3.58398 -2.84863 -6.40039 -6.40039 -6.40039zM496.768 239.296h-155.903c-2.5918 0 -4.89648 1.56836 -5.95215 3.93652c-0.992188 2.33594 -0.448242 5.05566 1.34375 6.94336l45.5361 45.1201c-36.1602 27.584 -79.3604 42.1445 -125.568 42.1445
c-3.4873 0 -6.39941 2.84766 -6.39941 6.36719v88.96c0 3.48828 2.91211 6.36816 6.39941 6.36816c72.8008 0 143.072 -25.376 198.465 -71.5518l37.5039 37.1523c1.85547 1.82324 4.67188 2.36719 7.00781 1.37598c2.36816 -0.992188 3.93555 -3.32812 3.93555 -5.88867
v-154.592c0.0644531 -3.55176 -2.81543 -6.33594 -6.36816 -6.33594zM463.936 -50.0801h-155.903c-3.52051 0 -6.40039 2.81641 -6.40039 6.36816v154.56c0 2.56055 1.56836 4.86426 3.93652 5.88867c2.43164 0.991211 5.18359 0.479492 7.00781 -1.37598l45.5674 -45.1201
c27.8086 35.8076 42.5283 78.6875 42.5283 124.479c0 3.52051 2.91211 6.36816 6.40039 6.36816h89.7598c3.51953 0 6.36816 -2.84766 6.36816 -6.36816c0 -72.1279 -25.6006 -141.792 -72.1924 -196.768l37.5039 -37.1846
c1.85645 -1.82324 2.36816 -4.51172 1.37598 -6.87988c-0.991211 -2.43164 -3.3916 -3.96777 -5.95215 -3.96777zM104.96 182.912h-89.7275c-3.48828 0 -6.36816 2.87988 -6.36816 6.36816c0 72.1914 25.5996 141.823 72.1914 196.768l-37.5361 37.2158
c-1.85547 1.79199 -2.39941 4.5127 -1.40723 6.87988c0.959961 2.36816 3.32812 3.9043 5.95215 3.9043h155.903c3.48828 0 6.36816 -2.81543 6.36816 -6.33594v-154.592c0 -2.5918 -1.53613 -4.86426 -3.9043 -5.85645
c-2.39941 -1.05566 -5.18359 -0.447266 -7.07129 1.34473l-45.5039 45.1191c-27.8086 -35.8711 -42.4961 -78.752 -42.4961 -124.479c0 -3.45605 -2.81641 -6.33594 -6.40039 -6.33594z" />
    <glyph glyph-name="uniF116" unicode="&#xf116;" 
d="M25.248 0.12793l175.936 153.76l52.5439 -44.6074l54.8486 44.96l177.983 -154.112h-461.312zM340.448 185.056l169.567 158.528v-316.288zM1.98438 343.072l166.56 -160.097l-166.56 -155.487v315.584zM25.5039 383.872h460.544l-232.096 -204.672z" />
    <glyph glyph-name="uniF117" unicode="&#xf117;" 
d="M7.2002 348.512v99.4883h497.632v-99.4883h-497.632zM7.2002 142.272v99.5518h497.632v-99.5518h-497.632zM7.2002 -64v99.4883h497.632v-99.4883h-497.632z" />
    <glyph glyph-name="uniF118" unicode="&#xf118;" 
d="M352 448h128l-320 -512h-128z" />
    <glyph glyph-name="uniF119" unicode="&#xf119;" 
d="M255.968 168.768c-76.8955 0 -139.359 62.4648 -139.328 139.425c0 76.8633 62.4326 139.327 139.328 139.327c76.96 0 139.424 -62.4639 139.424 -139.327c0 -76.96 -62.4639 -139.425 -139.424 -139.425zM23.6797 -63.5195h464.641
c0 139.327 -116.16 209.056 -116.16 209.056c-69.6963 -23.2637 -115.232 -68.7363 -115.232 -68.7363h-1.8877s-45.5361 45.5039 -115.232 68.7041c0.0322266 0.0322266 -116.128 -69.6641 -116.128 -209.023z" />
    <glyph glyph-name="uniF11A" unicode="&#xf11a;" 
d="M256 398.88c-114.08 0 -206.88 -92.832 -206.88 -206.88c0 -114.112 92.832 -206.88 206.88 -206.88c114.08 0 206.88 92.7998 206.88 206.88s-92.7998 206.88 -206.88 206.88zM256 440.256v0c137.12 0 248.256 -111.136 248.256 -248.256
c0 -137.088 -111.104 -248.256 -248.256 -248.256s-248.256 111.136 -248.256 248.256s111.104 248.256 248.256 248.256zM197.856 52.6719v278.656l180.319 -139.36z" />
    <glyph glyph-name="uniF11B" unicode="&#xf11b;" 
d="M80.1279 448h351.744v-512l-175.744 137.984l-176 -137.984v512zM310.816 257.504c1.82324 5.47168 52.8633 41.9844 50.624 48.6396c-2.30469 6.62402 -66.5605 8.06445 -71.6162 11.3926c-4.95996 3.42383 -26.3682 60.1279 -33.8242 60.1279
s-28.832 -56.7363 -33.8242 -60.1602c-4.99219 -3.3916 -69.376 -4.76758 -71.6797 -11.3916s48.8643 -43.1367 50.752 -48.6084c1.95215 -5.47168 -16.416 -63.0723 -10.3682 -67.0723c5.98438 -4.15918 58.9443 30.0166 65.1201 30.0166
c6.17578 -0.0966797 59.2002 -34.208 65.1836 -30.0479c6.0166 4.03125 -12.3193 61.6318 -10.3672 67.1035z" />
    <glyph glyph-name="uniF11C" unicode="&#xf11c;" 
d="M82.752 448h346.496v-512l-173.12 138.048l-173.376 -138.048v512z" />
    <glyph glyph-name="uniF11D" unicode="&#xf11d;" 
d="M497.44 15.3281c17.376 -18.2725 16.6719 -47.2637 -1.60059 -64.6396c-8.47949 -8.12891 -19.6797 -12.6406 -31.4238 -12.6406c-12.6084 0 -24.3838 4.92773 -33.0557 14.1123l-108.736 114.176c-33.8877 -22.624 -73.248 -34.4961 -114.08 -34.4961
c-113.888 0 -206.56 92.9277 -206.56 207.072c0 114.271 92.6074 207.136 206.56 207.136c113.92 0 206.592 -92.96 206.592 -207.136c0 -37.5684 -10.1758 -74.1445 -29.3115 -106.272zM208.48 108.448c71.7754 0 130.208 58.4961 130.144 130.464
c0 71.8721 -58.3682 130.432 -130.144 130.432c-71.7441 0 -130.08 -58.4961 -130.08 -130.432c0 -71.9678 58.3359 -130.464 130.08 -130.464z" />
    <glyph glyph-name="uniF11E" unicode="&#xf11e;" 
d="M41.1201 67.8398c-18.0166 0 -32.6719 12.2246 -32.6719 27.3926v0v293.279c0 15.1045 14.624 27.3604 32.6719 27.3604v0h187.776l-46.6885 -45.4717h-127.072v-254.305h298.176v25.9521l46.6885 39.1357v-85.9512c0 -15.1367 -14.6885 -27.3281 -32.6719 -27.3926v0
h-326.208v0zM351.808 398.848v49.1523l151.744 -127.2l-152.448 -127.68v73.376s-89.4072 -17.0879 -153.472 -50.3037c-42.5596 -22.1123 -68 -44.2568 -89.0557 -74.1123c0 0 5.75977 79.3281 60.2236 151.584c68.1279 90.3682 183.008 105.184 183.008 105.184z" />
    <glyph glyph-name="uniF11F" unicode="&#xf11f;" 
d="M256 429.856c17.9521 0 69.5361 -143.681 81.7598 -152.32c11.9365 -8.6084 167.104 -12.2559 172.769 -28.96c5.53613 -16.7998 -117.792 -109.248 -122.561 -123.168c-4.60742 -14.0166 40 -159.904 25.248 -170.368
c-14.3994 -10.3359 -142.24 76.1924 -157.184 76.1924c-15.0078 0 -142.816 -86.5283 -157.344 -76.1924c-14.6562 10.4639 29.8555 156.352 25.1514 170.368c-4.44824 13.9199 -127.808 106.399 -122.368 123.168c5.60059 16.7041 160.864 20.3838 172.96 28.96
c12.0322 8.67188 63.6162 152.32 81.5684 152.32z" />
    <glyph glyph-name="uniF120" unicode="&#xf120;" 
d="M457.888 295.328v-13.5039c0 -137.28 -104.512 -295.712 -295.744 -295.712c-58.6875 0 -113.888 12.8633 -159.615 42.2393c8.19141 -1.18359 16.416 -1.82324 24.6396 -1.82324c48.7041 0 93.8877 21.0879 129.088 49.3115
c-45.1836 0.640625 -83.9043 31.1357 -96.7998 72.1279c6.46387 -1.18359 12.8643 -1.75977 19.2959 -1.75977c9.4082 0 18.7842 1.15234 27.6162 3.48828c-47.5518 9.40723 -83.2959 51.6475 -83.2959 102.144v1.12012c14.0479 -7.61621 29.8877 -12.2881 46.9121 -12.8643
c-28.1602 18.752 -46.3359 50.4326 -46.3359 86.208c0 19.3604 5.2793 35.2002 14.0479 50.4639c51.6152 -62.7832 127.936 -102.048 214.176 -106.815c-1.79199 7.67969 -2.36816 15.9043 -2.36816 24.0635c0 57.5039 46.3682 103.872 103.872 103.872
c29.9521 0 56.9277 -12.8955 76.3203 -32.832c23.4238 4.67188 45.7598 13.5039 65.7275 25.2168c-7.58398 -24.0322 -24.0322 -44.5762 -45.792 -57.5049c21.1201 2.33594 41.0566 8.22461 59.8721 16.416c-14.1436 -21.0234 -31.6797 -39.1992 -51.6162 -53.8555z" />
    <glyph glyph-name="uniF121" unicode="&#xf121;" 
d="M450.944 257.536c21.8555 -18.208 40.2559 -40.0645 55.4873 -65.6963c-15.2314 -25.5039 -33.5996 -47.3916 -55.4873 -65.376c-52.5127 -43.7441 -117.633 -71.0723 -195.296 -71.0723c-77.5049 0 -142.561 27.3281 -194.881 71.0723
c-21.8555 18.0479 -40.1914 39.8721 -55.2314 65.376c15.04 25.6318 33.376 47.4883 55.2314 65.6963c52.3203 43.7441 117.376 71.0723 194.881 71.0723c77.6631 0 142.783 -27.3281 195.296 -71.0723zM256 97.3438c54.1123 0 97.9844 42.3682 97.9844 94.624
c0 52.2881 -43.8721 94.624 -97.9844 94.624s-97.9844 -42.3359 -97.9844 -94.624c0 -52.2559 43.8721 -94.624 97.9844 -94.624zM256 223.84c18.0479 0 32.6719 -14.1436 32.6719 -31.5518c0 -17.4404 -14.624 -31.5205 -32.6719 -31.5205
s-32.6719 14.0801 -32.6719 31.5205c0 17.376 14.6875 31.5518 32.6719 31.5518z" />
  </font>
</defs>
</svg>
