<?xml version="1.0" encoding="utf-8"?>
<!-- Generator: Adobe Illustrator 17.0.0, SVG Export Plug-In . SVG Version: 6.00 Build 0)  -->
<!DOCTYPE svg PUBLIC "-//W3C//DTD SVG 1.1//EN" "http://www.w3.org/Graphics/SVG/1.1/DTD/svg11.dtd">
<svg version="1.1" id="Layer_1" xmlns="http://www.w3.org/2000/svg" xmlns:xlink="http://www.w3.org/1999/xlink" x="0px" y="0px"
	 width="50px" height="46px" viewBox="0 0 50 46" enable-background="new 0 0 50 46" xml:space="preserve">
<g>
	<path fill="#818285" d="M28.977,37.755c-0.562,0.079-0.958,0.563-0.884,1.083c0.076,0.519,0.59,0.876,1.15,0.797l10.06-1.411
		c0.551-0.077,0.947-0.559,0.882-1.075c-0.065-0.516-0.564-0.873-1.119-0.797L28.977,37.755z M29.104,36.307
		c0.104,0.014,0.213,0.017,0.324,0.001l8.342-1.17c1.883-0.019,3.122-0.395,3.664-2.334c1.89-6.767,8.066-6.964,8.066-17.278
		c0-8.406-6.899-15.221-15.41-15.221H34.06h-0.03c-8.51,0-15.41,6.815-15.41,15.221c0,10.314,6.245,10.493,8.066,17.278
		C27.416,35.523,28.159,36.298,29.104,36.307z M28.921,40.752c-0.559,0.079-0.952,0.562-0.878,1.076
		c0.076,0.514,0.588,0.868,1.147,0.788l10.018-1.431c0.549-0.077,0.943-0.554,0.878-1.065c-0.065-0.513-0.562-0.864-1.113-0.786
		L28.921,40.752z M32.516,43.319c-0.618,0.089-1.053,0.622-0.973,1.187c0.078,0.566,0.642,0.95,1.255,0.862l2.831-0.41
		c0.612-0.089,1.047-0.617,0.973-1.183c-0.076-0.563-0.633-0.951-1.247-0.864L32.516,43.319z"/>
	<path fill="#818285" d="M10.856,37.755c-0.562,0.079-0.958,0.563-0.882,1.083c0.074,0.519,0.588,0.876,1.15,0.797l10.058-1.411
		c0.551-0.077,0.947-0.559,0.882-1.075c-0.065-0.516-0.564-0.873-1.117-0.797L10.856,37.755z M10.983,36.307
		c0.106,0.014,0.214,0.017,0.324,0.001l8.342-1.17c1.883-0.019,3.122-0.395,3.664-2.334c1.89-6.767,8.067-6.964,8.067-17.278
		c0-8.406-6.9-15.221-15.41-15.221h-0.03h-0.03C7.399,0.305,0.5,7.12,0.5,15.526c0,10.314,6.245,10.493,8.066,17.278
		C9.297,35.523,10.04,36.298,10.983,36.307z M10.802,40.752c-0.56,0.079-0.954,0.562-0.878,1.076
		c0.074,0.514,0.588,0.868,1.145,0.788l10.019-1.431c0.549-0.077,0.941-0.554,0.877-1.065c-0.063-0.513-0.562-0.864-1.113-0.786
		L10.802,40.752z M14.395,43.319c-0.618,0.089-1.053,0.622-0.973,1.187c0.08,0.566,0.642,0.95,1.256,0.862l2.831-0.41
		c0.612-0.089,1.047-0.617,0.973-1.183c-0.074-0.563-0.633-0.951-1.247-0.864L14.395,43.319z"/>
	<path fill="#595A5C" d="M31.379,15.526c0-5.073-2.516-9.564-6.379-12.33c-3.863,2.766-6.379,7.257-6.379,12.33
		c0,8.108,3.859,9.953,6.395,13.668C27.567,25.489,31.379,23.629,31.379,15.526z"/>
	<path fill="#FFFFFF" d="M29.471,32.62c-0.606-3.951-1.669-8.639-1.67-13.417l0,0c0-1.914,0.171-3.843,0.613-5.747l0,0
		c0.022-0.092,0.079-0.174,0.158-0.225l0,0c1.217-0.798,2.334-1.148,3.336-1.148l0,0c1.729-0.001,3.028,1.043,3.858,2.323l0,0
		c0.15,0.231,0.286,0.469,0.409,0.712l0,0c0.792-0.954,1.881-1.7,3.215-1.704l0,0c1.324,0.001,2.781,0.749,4.292,2.555l0,0
		c0.065,0.078,0.096,0.18,0.084,0.281l0,0c-1.133,9.566-6.528,16.428-6.547,16.457l0,0c-0.126,0.161-0.358,0.189-0.519,0.062l0,0
		c-0.161-0.125-0.189-0.358-0.062-0.519l0,0c0-0.001,0.078-0.1,0.224-0.301l0,0c0.145-0.201,0.356-0.5,0.612-0.889l0,0
		c0.513-0.777,1.211-1.914,1.943-3.343l0,0c1.448-2.826,3.028-6.796,3.596-11.395l0,0c-1.394-1.619-2.619-2.17-3.622-2.169l0,0
		c-1.151-0.004-2.147,0.734-2.876,1.733l0,0c0.336,0.883,0.504,1.78,0.505,2.538l0,0c-0.001,0.502-0.071,0.946-0.25,1.307l0,0
		c-0.168,0.359-0.527,0.657-0.966,0.649l0,0c-0.203,0-0.405-0.055-0.609-0.151l0,0c-0.232-0.11-0.388-0.315-0.473-0.532l0,0
		c-0.087-0.22-0.119-0.463-0.12-0.726l0,0c0.005-0.902,0.39-2.097,1.078-3.172l0,0c-0.15-0.343-0.328-0.677-0.532-0.989l0,0
		c-0.756-1.152-1.828-1.986-3.238-1.987l0,0c-0.797,0-1.729,0.267-2.807,0.946l0,0c-0.402,1.79-0.561,3.613-0.561,5.434l0,0
		c-0.001,4.671,1.047,9.316,1.661,13.305l0,0c0.031,0.201-0.107,0.391-0.309,0.421l0,0c-0.019,0.003-0.038,0.005-0.056,0.005l0,0
		C29.657,32.934,29.499,32.803,29.471,32.62L29.471,32.62z M35.34,18.971c0,0.198,0.028,0.356,0.067,0.452l0,0
		c0.041,0.098,0.076,0.124,0.104,0.139l0,0c0.129,0.061,0.226,0.079,0.292,0.079l0,0c0.126-0.007,0.192-0.038,0.306-0.241l0,0
		c0.103-0.2,0.173-0.549,0.172-0.975l0,0c0.002-0.501-0.09-1.104-0.272-1.724l0,0C35.573,17.531,35.336,18.398,35.34,18.971
		L35.34,18.971z"/>
	<path fill="#FFFFFF" d="M12.718,33.086c-0.017-0.028-5.088-7.036-6.22-16.593l0,0c-0.009-0.075,0.005-0.15,0.041-0.217l0,0
		c0.73-1.367,1.459-2.315,2.19-2.934l0,0c0.729-0.618,1.474-0.905,2.184-0.903l0,0c1.188,0.009,2.158,0.757,2.883,1.702l0,0
		c0.116-0.224,0.243-0.446,0.382-0.66l0,0c0.829-1.279,2.129-2.324,3.858-2.323l0,0c1.002,0,2.118,0.35,3.337,1.148l0,0
		c0.079,0.052,0.136,0.133,0.158,0.225l0,0C21.864,13.971,22,15.426,22,16.875l0,0c-0.004,5.279-1.793,10.506-2.452,14.818l0,0
		c-0.031,0.202-0.22,0.341-0.422,0.31l0,0c-0.201-0.032-0.34-0.22-0.309-0.422l0,0c0.682-4.41,2.447-9.591,2.443-14.706l0,0
		c0-1.354-0.123-2.702-0.419-4.032l0,0c-1.078-0.681-2.011-0.947-2.807-0.947l0,0c-1.411,0.001-2.482,0.834-3.238,1.987l0,0
		c-0.2,0.306-0.374,0.633-0.522,0.967l0,0c0.653,1.103,1.033,2.328,1.039,3.234l0,0c0,0.254-0.03,0.486-0.11,0.698l0,0
		c-0.078,0.21-0.225,0.413-0.453,0.521l0,0c-0.203,0.096-0.406,0.151-0.609,0.151l0,0c-0.44,0.008-0.799-0.29-0.967-0.649l0,0
		c-0.179-0.362-0.249-0.806-0.251-1.308l0,0c0.002-0.769,0.175-1.682,0.522-2.578l0,0c-0.676-1.017-1.587-1.753-2.532-1.744l0,0
		c-0.51,0.001-1.074,0.196-1.706,0.729l0,0c-0.614,0.518-1.28,1.36-1.96,2.616l0,0c0.986,8.118,4.902,14.396,5.861,15.825l0,0
		c0.137,0.205,0.211,0.307,0.211,0.307l0,0h0c0.119,0.165,0.082,0.397-0.083,0.517l0,0c-0.065,0.048-0.141,0.07-0.216,0.07l0,0
		C12.903,33.239,12.79,33.185,12.718,33.086L12.718,33.086z M13.663,17.498c-0.001,0.427,0.07,0.777,0.172,0.976l0,0
		c0.114,0.202,0.18,0.234,0.306,0.241l0,0c0.066,0,0.163-0.019,0.291-0.08l0,0c0.013-0.006,0.043-0.024,0.08-0.117l0,0
		c0.035-0.09,0.062-0.243,0.061-0.435l0,0c0.004-0.574-0.228-1.458-0.639-2.307l0,0C13.753,16.396,13.662,16.998,13.663,17.498
		L13.663,17.498z"/>
</g>
<g>
	<path fill="#FFFFFF" stroke="#FFFFFF" stroke-width="0.125" stroke-miterlimit="10" d="M29.976,32.62
		c-0.606-3.951-1.669-8.639-1.67-13.417l0,0c0-1.914,0.171-3.843,0.613-5.747l0,0c0.022-0.092,0.079-0.174,0.158-0.225l0,0
		c1.217-0.798,2.334-1.148,3.336-1.148l0,0c1.729-0.001,3.028,1.043,3.858,2.323l0,0c0.15,0.231,0.286,0.469,0.409,0.712l0,0
		c0.792-0.954,1.881-1.7,3.215-1.704l0,0c1.324,0.001,2.781,0.749,4.292,2.555l0,0c0.065,0.078,0.096,0.18,0.084,0.281l0,0
		c-1.133,9.566-6.528,16.428-6.547,16.457l0,0c-0.126,0.161-0.358,0.189-0.519,0.062l0,0c-0.161-0.125-0.189-0.358-0.062-0.519l0,0
		c0-0.001,0.078-0.1,0.224-0.301l0,0c0.145-0.201,0.356-0.5,0.612-0.889l0,0c0.513-0.777,1.211-1.914,1.943-3.343l0,0
		c1.448-2.826,3.028-6.796,3.596-11.395l0,0c-1.394-1.619-2.619-2.17-3.622-2.169l0,0c-1.151-0.004-2.147,0.734-2.876,1.733l0,0
		c0.336,0.883,0.504,1.78,0.505,2.538l0,0c-0.001,0.502-0.071,0.946-0.25,1.307l0,0c-0.168,0.359-0.527,0.657-0.966,0.649l0,0
		c-0.203,0-0.405-0.055-0.609-0.151l0,0c-0.232-0.11-0.388-0.315-0.473-0.532l0,0c-0.087-0.22-0.119-0.463-0.12-0.726l0,0
		c0.005-0.902,0.39-2.097,1.078-3.172l0,0c-0.15-0.343-0.328-0.677-0.532-0.989l0,0c-0.756-1.152-1.828-1.986-3.238-1.987l0,0
		c-0.797,0-1.729,0.267-2.807,0.946l0,0c-0.402,1.79-0.561,3.613-0.561,5.434l0,0c-0.001,4.671,1.047,9.316,1.661,13.305l0,0
		c0.031,0.201-0.107,0.391-0.309,0.421l0,0c-0.019,0.003-0.038,0.005-0.056,0.005l0,0C30.162,32.934,30.004,32.803,29.976,32.62
		L29.976,32.62z M35.845,18.971c0,0.198,0.028,0.356,0.067,0.452l0,0c0.041,0.098,0.076,0.124,0.104,0.139l0,0
		c0.129,0.061,0.226,0.079,0.292,0.079l0,0c0.126-0.007,0.192-0.038,0.306-0.241l0,0c0.103-0.2,0.173-0.549,0.172-0.975l0,0
		c0.002-0.501-0.09-1.104-0.272-1.724l0,0C36.078,17.531,35.841,18.398,35.845,18.971L35.845,18.971z"/>
	<path fill="#FFFFFF" stroke="#FFFFFF" stroke-width="0.125" stroke-miterlimit="10" d="M13.223,33.086
		c-0.017-0.028-5.088-7.036-6.22-16.593l0,0c-0.009-0.075,0.005-0.15,0.041-0.217l0,0c0.73-1.367,1.459-2.315,2.19-2.934l0,0
		c0.729-0.618,1.474-0.905,2.184-0.903l0,0c1.188,0.009,2.158,0.757,2.883,1.702l0,0c0.116-0.224,0.243-0.446,0.382-0.66l0,0
		c0.829-1.279,2.129-2.324,3.858-2.323l0,0c1.002,0,2.118,0.35,3.337,1.148l0,0c0.079,0.052,0.136,0.133,0.158,0.225l0,0
		c0.335,1.441,0.471,2.896,0.471,4.345l0,0c-0.004,5.279-1.793,10.506-2.452,14.818l0,0c-0.031,0.202-0.22,0.341-0.422,0.31l0,0
		c-0.201-0.032-0.34-0.22-0.309-0.422l0,0c0.682-4.41,2.447-9.591,2.443-14.706l0,0c0-1.354-0.123-2.702-0.419-4.032l0,0
		c-1.078-0.681-2.011-0.947-2.807-0.947l0,0c-1.411,0.001-2.482,0.834-3.238,1.987l0,0c-0.2,0.306-0.374,0.633-0.522,0.967l0,0
		c0.653,1.103,1.033,2.328,1.039,3.234l0,0c0,0.254-0.03,0.486-0.11,0.698l0,0c-0.078,0.21-0.225,0.413-0.453,0.521l0,0
		c-0.203,0.096-0.406,0.151-0.609,0.151l0,0c-0.44,0.008-0.799-0.29-0.967-0.649l0,0c-0.179-0.362-0.249-0.806-0.251-1.308l0,0
		c0.002-0.769,0.175-1.682,0.522-2.578l0,0c-0.676-1.017-1.587-1.753-2.532-1.744l0,0c-0.51,0.001-1.074,0.196-1.706,0.729l0,0
		c-0.614,0.518-1.28,1.36-1.96,2.616l0,0c0.986,8.118,4.902,14.396,5.861,15.825l0,0c0.137,0.205,0.211,0.307,0.211,0.307l0,0h0
		c0.119,0.165,0.082,0.397-0.083,0.517l0,0c-0.065,0.048-0.141,0.07-0.216,0.07l0,0C13.408,33.239,13.295,33.185,13.223,33.086
		L13.223,33.086z M14.168,17.498c-0.001,0.427,0.07,0.777,0.172,0.976l0,0c0.114,0.202,0.18,0.234,0.306,0.241l0,0
		c0.066,0,0.163-0.019,0.291-0.08l0,0c0.013-0.006,0.043-0.024,0.08-0.117l0,0c0.035-0.09,0.062-0.243,0.061-0.435l0,0
		c0.004-0.574-0.228-1.458-0.639-2.307l0,0C14.258,16.396,14.167,16.998,14.168,17.498L14.168,17.498z"/>
</g>
</svg>
